<?xml version="1.0" encoding="UTF-8" standalone="no"?>
<!-- Generator: Adobe Illustrator 19.0.0, SVG Export Plug-In . SVG Version: 6.00 Build 0)  -->

<svg
   xmlns:osb="http://www.openswatchbook.org/uri/2009/osb"
   xmlns:dc="http://purl.org/dc/elements/1.1/"
   xmlns:cc="http://creativecommons.org/ns#"
   xmlns:rdf="http://www.w3.org/1999/02/22-rdf-syntax-ns#"
   xmlns:svg="http://www.w3.org/2000/svg"
   xmlns="http://www.w3.org/2000/svg"
   xmlns:xlink="http://www.w3.org/1999/xlink"
   xmlns:sodipodi="http://sodipodi.sourceforge.net/DTD/sodipodi-0.dtd"
   xmlns:inkscape="http://www.inkscape.org/namespaces/inkscape"
   version="1.1"
   id="Capa_1"
   x="0px"
   y="0px"
   viewBox="0 0 568.27277 542.94049"
   xml:space="preserve"
   sodipodi:docname="odometer_colour.svg"
   inkscape:version="0.92.5 (2060ec1f9f, 2020-04-08)"
   width="568.27277"
   height="542.94049"><metadata
   id="metadata61"><rdf:RDF><cc:Work
       rdf:about=""><dc:format>image/svg+xml</dc:format><dc:type
         rdf:resource="http://purl.org/dc/dcmitype/StillImage" /><dc:title /></cc:Work></rdf:RDF></metadata><defs
   id="defs59"><pattern
   inkscape:collect="always"
   xlink:href="#Strips1_3"
   id="pattern1675"
   patternTransform="matrix(10,0,0,10,-47.728814,19.010178)" /><pattern
   inkscape:stockid="Stripes 1:3"
   id="Strips1_3"
   patternTransform="translate(0,0) scale(10,10)"
   height="1"
   width="4"
   patternUnits="userSpaceOnUse"
   inkscape:collect="always"><rect
     id="rect8043"
     height="2"
     width="1"
     y="-0.5"
     x="0"
     style="fill:black;stroke:none" /></pattern><linearGradient
   id="linearGradient10541"
   osb:paint="solid"><stop
     style="stop-color:#505050;stop-opacity:1;"
     offset="0"
     id="stop10539" /></linearGradient><linearGradient
   id="linearGradient7305"
   osb:paint="solid"><stop
     style="stop-color:#000000;stop-opacity:1;"
     offset="0"
     id="stop7303" /></linearGradient>
	

		
	</defs><sodipodi:namedview
   pagecolor="#ffffff"
   bordercolor="#666666"
   borderopacity="1"
   objecttolerance="10"
   gridtolerance="10"
   guidetolerance="10"
   inkscape:pageopacity="1"
   inkscape:pageshadow="2"
   inkscape:window-width="1677"
   inkscape:window-height="893"
   id="namedview57"
   showgrid="false"
   inkscape:zoom="0.921875"
   inkscape:cx="159.08883"
   inkscape:cy="263.61298"
   inkscape:window-x="0"
   inkscape:window-y="0"
   inkscape:window-maximized="1"
   inkscape:current-layer="Capa_1"
   fit-margin-top="0"
   fit-margin-left="0"
   fit-margin-right="0"
   fit-margin-bottom="0" />




<g
   id="g26"
   transform="translate(992.68531,75.488738)">
</g>
<g
   id="g28"
   transform="translate(992.68531,75.488738)">
</g>
<g
   id="g30"
   transform="translate(992.68531,75.488738)">
</g>
<g
   id="g32"
   transform="translate(992.68531,75.488738)">
</g>
<g
   id="g34"
   transform="translate(992.68531,75.488738)">
</g>
<g
   id="g36"
   transform="translate(992.68531,75.488738)">
</g>
<g
   id="g38"
   transform="translate(992.68531,75.488738)">
</g>
<g
   id="g40"
   transform="translate(992.68531,75.488738)">
</g>
<g
   id="g42"
   transform="translate(992.68531,75.488738)">
</g>
<g
   id="g44"
   transform="translate(992.68531,75.488738)">
</g>
<g
   id="g46"
   transform="translate(992.68531,75.488738)">
</g>
<g
   id="g48"
   transform="translate(992.68531,75.488738)">
</g>
<g
   id="g50"
   transform="translate(992.68531,75.488738)">
</g>
<g
   id="g52"
   transform="translate(992.68531,75.488738)">
</g>
<g
   id="g54"
   transform="translate(992.68531,75.488738)">
</g>
<path
   style="fill:none;stroke-width:2.16949153"
   d="m 1131.3873,471.71094 -23.285,-23.35746 v -75.35441 -75.3544 h 19.0373 19.0373 l 16.1626,-16.27118 16.1626,-16.27119 h 112.9358 112.9358 l 12.4066,12.53749 12.4067,12.53748 v 91.59811 91.59811 h -31.5875 -31.5875 l -11.4696,10.84745 -11.4696,10.84746 h -94.2002 -94.2003 z m 156.3489,-0.94084 c 3.356,-3.35603 3.356,-13.13211 0,-16.48814 -1.8669,-1.86681 -16.0844,-2.60339 -50.2507,-2.60339 h -47.6472 l -23.3595,-22.77966 c -23.6488,-23.06173 -28.8875,-25.92489 -35.4419,-19.37046 -6.9971,6.99709 -4.0023,12.20222 22.0484,38.32092 l 25.4576,25.52412 h 53.2949 c 38.559,0 54.0148,-0.71984 55.8984,-2.60339 z m 40.4145,-0.80582 c 4.3542,-4.35422 4.3542,-10.52228 0,-14.87651 -1.8751,-1.87506 -5.2223,-3.4092 -7.4383,-3.4092 -9.2558,0 -14.0177,11.70628 -7.4382,18.28571 1.875,1.87507 5.2222,3.40921 7.4382,3.40921 2.216,0 5.5632,-1.53414 7.4383,-3.40921 z"
   id="path72"
   inkscape:connector-curvature="0" /><g
   id="g41"
   transform="translate(24.292108,24.424326)"><rect
     y="-23.630968"
     x="-23.498751"
     height="541.35376"
     width="566.68604"
     id="rect841"
     style="fill:#505050;fill-opacity:0;stroke:#0a0a0a;stroke-width:1.58671522;stroke-miterlimit:4;stroke-dasharray:none;stroke-opacity:0" /><ellipse
     style="opacity:1;fill:none;fill-opacity:0.09259261;stroke:#3c3c3c;stroke-width:21.99788857;stroke-miterlimit:4;stroke-dasharray:none;stroke-dashoffset:0;stroke-opacity:1"
     ry="245.02916"
     rx="245.16075"
     cy="256.41077"
     cx="257.62714"
     id="path6551" /><g
     id="g841"><rect
       style="opacity:1;fill:url(#pattern1675);fill-opacity:1;stroke:#969696;stroke-width:14.85700035;stroke-miterlimit:4;stroke-dasharray:none;stroke-dashoffset:0;stroke-opacity:1"
       id="rect8769"
       width="234.44856"
       height="63.058723"
       x="145.28423"
       y="376.33508"
       ry="23.86441" /><path
       style="opacity:1;fill:none;fill-opacity:0.09259261;stroke:#969696;stroke-width:15.75708485;stroke-miterlimit:4;stroke-dasharray:none;stroke-dashoffset:0;stroke-opacity:1"
       id="path940"
       sodipodi:type="arc"
       sodipodi:cx="223.29485"
       sodipodi:cy="290.10007"
       sodipodi:rx="194.39409"
       sodipodi:ry="197.23372"
       sodipodi:start="2.3639115"
       sodipodi:end="1.0080763"
       d="M 84.780811,428.48497 A 194.39409,197.23372 0 0 1 48.606204,203.57277 194.39409,197.23372 0 0 1 245.63908,94.173595 194.39409,197.23372 0 0 1 412.84264,246.33417 194.39409,197.23372 0 0 1 327.00191,456.92175"
       sodipodi:open="true"
       transform="matrix(0.99014683,-0.14003308,0.1333185,0.99107325,0,0)" /></g><path
     inkscape:connector-curvature="0"
     id="path8767"
     d="M 156.20339,96.542371 C 266.84746,250.57627 266.84746,250.57627 266.84746,250.57627 l -21.69492,10.84746 z"
     style="fill:#505050;fill-opacity:1;stroke:#ff8787;stroke-width:12.89999962;stroke-linecap:butt;stroke-linejoin:miter;stroke-miterlimit:4;stroke-dasharray:none;stroke-opacity:1" /></g></svg>