<?xml version="1.0" encoding="UTF-8" standalone="no"?>
<svg
   xmlns:osb="http://www.openswatchbook.org/uri/2009/osb"
   xmlns:dc="http://purl.org/dc/elements/1.1/"
   xmlns:cc="http://creativecommons.org/ns#"
   xmlns:rdf="http://www.w3.org/1999/02/22-rdf-syntax-ns#"
   xmlns:svg="http://www.w3.org/2000/svg"
   xmlns="http://www.w3.org/2000/svg"
   height="512"
   width="512"
   xml:space="preserve"
   viewBox="0 0 512 512"
   y="0px"
   x="0px"
   id="Capa_1"
   version="1.1"><metadata
     id="metadata61"><rdf:RDF><cc:Work
         rdf:about=""><dc:format>image/svg+xml</dc:format><dc:type
           rdf:resource="http://purl.org/dc/dcmitype/StillImage" /><dc:title></dc:title></cc:Work></rdf:RDF></metadata><defs
     id="defs59"><linearGradient
       osb:paint="solid"
       id="linearGradient10541"><stop
         id="stop10539"
         offset="0"
         style="stop-color:#505050;stop-opacity:1;" /></linearGradient><linearGradient
       osb:paint="solid"
       id="linearGradient7305"><stop
         id="stop7303"
         offset="0"
         style="stop-color:#000000;stop-opacity:1;" /></linearGradient></defs><g
     transform="translate(968.3932,51.064412)"
     id="g26" /><g
     transform="translate(968.3932,51.064412)"
     id="g28" /><g
     transform="translate(968.3932,51.064412)"
     id="g30" /><g
     transform="translate(968.3932,51.064412)"
     id="g32" /><g
     transform="translate(968.3932,51.064412)"
     id="g34" /><g
     transform="translate(968.3932,51.064412)"
     id="g36" /><g
     transform="translate(968.3932,51.064412)"
     id="g38" /><g
     transform="translate(968.3932,51.064412)"
     id="g40" /><g
     transform="translate(968.3932,51.064412)"
     id="g42" /><g
     transform="translate(968.3932,51.064412)"
     id="g44" /><g
     transform="translate(968.3932,51.064412)"
     id="g46" /><g
     transform="translate(968.3932,51.064412)"
     id="g48" /><g
     transform="translate(968.3932,51.064412)"
     id="g50" /><g
     transform="translate(968.3932,51.064412)"
     id="g52" /><g
     transform="translate(968.3932,51.064412)"
     id="g54" /><path
     id="path72"
     d="m 1107.0952,447.28661 -23.285,-23.35746 v -75.35441 -75.3544 h 19.0373 19.0373 l 16.1626,-16.27118 16.1626,-16.27119 h 112.9358 112.9358 l 12.4066,12.53749 12.4067,12.53748 v 91.59811 91.59811 h -31.5875 -31.5875 l -11.4696,10.84745 -11.4696,10.84746 h -94.2002 -94.2003 z m 156.3489,-0.94084 c 3.356,-3.35603 3.356,-13.13211 0,-16.48814 -1.8669,-1.86681 -16.0844,-2.60339 -50.2507,-2.60339 h -47.6472 l -23.3595,-22.77966 c -23.6488,-23.06173 -28.8875,-25.92489 -35.4419,-19.37046 -6.9971,6.99709 -4.0023,12.20222 22.0484,38.32092 l 25.4576,25.52412 h 53.2949 c 38.559,0 54.0148,-0.71984 55.8984,-2.60339 z m 40.4145,-0.80582 c 4.3542,-4.35422 4.3542,-10.52228 0,-14.87651 -1.8751,-1.87506 -5.2223,-3.4092 -7.4383,-3.4092 -9.2558,0 -14.0177,11.70628 -7.4382,18.28571 1.875,1.87507 5.2222,3.40921 7.4382,3.40921 2.216,0 5.5632,-1.53414 7.4383,-3.40921 z"
     style="fill:none;stroke-width:2.16949153" /><g
     id="g1591"><rect
       style="fill:#787878;fill-opacity:1;stroke:#787878;stroke-width:1.58671522;stroke-miterlimit:4;stroke-dasharray:none;stroke-opacity:1"
       id="rect841"
       width="566.68604"
       height="541.35376"
       x="-23.498751"
       y="-23.630968" /><rect
       style="opacity:1;fill:#787878;fill-opacity:1;stroke:#b4b4b4;stroke-width:14.85700035;stroke-miterlimit:4;stroke-dasharray:none;stroke-dashoffset:0;stroke-opacity:1"
       id="rect8769"
       width="234.44856"
       height="63.058723"
       x="145.28423"
       y="376.33508"
       ry="23.86441" /><ellipse
       id="path6551"
       cx="257.62714"
       cy="256.41077"
       rx="245.16075"
       ry="245.02916"
       style="opacity:1;fill:none;fill-opacity:0.09259261;stroke:#b4b4b4;stroke-width:21.99788857;stroke-miterlimit:4;stroke-dasharray:none;stroke-dashoffset:0;stroke-opacity:1" /><path
       style="opacity:1;fill:none;fill-opacity:0.09259261;stroke:#b4b4b4;stroke-width:15.75708485;stroke-miterlimit:4;stroke-dasharray:none;stroke-dashoffset:0;stroke-opacity:1"
       id="path940"
       d="M 84.780811,428.48497 A 194.39409,197.23372 0 0 1 48.606204,203.57277 194.39409,197.23372 0 0 1 245.63908,94.173595 194.39409,197.23372 0 0 1 412.84264,246.33417 194.39409,197.23372 0 0 1 327.00191,456.92175"
       transform="matrix(0.99014683,-0.14003308,0.1333185,0.99107325,0,0)" /><path
       style="fill:#787878;fill-opacity:1;stroke:#b4b4b4;stroke-width:12.89999962;stroke-linecap:butt;stroke-linejoin:miter;stroke-miterlimit:4;stroke-dasharray:none;stroke-opacity:1"
       d="M 156.20339,96.542371 C 266.84746,250.57627 266.84746,250.57627 266.84746,250.57627 l -21.69492,10.84746 z"
       id="path8767" /></g></svg>